<?xml version="1.0" encoding="UTF-8"?>
<svg version="1.1" xmlns="http://www.w3.org/2000/svg" width="409" height="399">
<path d="M0 0 C0 74.25 0 148.5 0 225 C-27.72 225 -55.44 225 -84 225 C-84.68515158 182.85198244 -84.68515158 182.85198244 -84.83007812 165.15625 C-84.93086184 152.94863139 -85.04917046 140.74301089 -85.2824707 128.53710938 C-85.45232606 119.64627881 -85.56168181 110.75707232 -85.59950441 101.86466432 C-85.62160612 97.15841901 -85.67322369 92.45681792 -85.79741096 87.75206757 C-86.5832578 56.80252687 -86.5832578 56.80252687 -80.33517456 50.12854004 C-76.86896466 47.32471708 -73.24796224 45.47409046 -69.10142326 43.88008881 C-65.81836312 42.50512331 -63.22375014 40.49823836 -60.375 38.375 C-53.94155065 33.93399951 -47.43925049 29.6000688 -40.92480469 25.27929688 C-38.98087341 23.98728776 -37.04068119 22.68984423 -35.1015625 21.390625 C-28.64282076 17.0657857 -22.15809066 12.8052475 -15.57421875 8.671875 C-11.98506548 6.3408316 -8.53563311 3.82745627 -5.09375 1.28515625 C-3 0 -3 0 0 0 Z " fill="#004097" transform="translate(245,38)"/>
<path d="M0 0 C1.53668865 0.22467831 3.07968054 0.40796805 4.625 0.5625 C5.85089844 0.68818359 5.85089844 0.68818359 7.1015625 0.81640625 C8.04128906 0.90728516 8.04128906 0.90728516 9 1 C9 0.34 9 -0.32 9 -1 C10.65 -1.33 12.3 -1.66 14 -2 C14 -1.34 14 -0.68 14 0 C16.90406283 1.45203142 19.73200199 1.50887331 22.95703125 1.8671875 C24.39520508 2.0323538 25.83335532 2.19772555 27.27148438 2.36328125 C29.52402669 2.61828604 31.77676762 2.87105815 34.0300293 3.11962891 C43.54532427 4.17606059 52.69407833 5.67854351 62 8 C63.51116807 8.32767478 65.02403979 8.64766757 66.5390625 8.95703125 C76.81703072 11.09268097 86.75161506 13.89574851 96.70361328 17.23095703 C98.19471681 17.7303166 99.68779574 18.22382975 101.18310547 18.71044922 C109.74123408 21.49631374 117.9713946 24.74425325 126.125 28.5625 C126.90681641 28.92641846 127.68863281 29.29033691 128.49414062 29.6652832 C134.31721995 32.46566184 140.07520168 35.41355225 144 40.6875 C145.41287637 45.36765296 145.36843244 49.30041202 144 54 C141.11040399 57.80210002 141.11040399 57.80210002 138 59 C130.26273701 59.99754698 124.05163983 58.39664568 117 55.375 C115.16447791 54.6337536 113.32719418 53.89685633 111.48828125 53.1640625 C110.11470459 52.61347168 110.11470459 52.61347168 108.71337891 52.05175781 C90.13445865 44.85021125 70.54128758 40.60581223 51 37 C49.59065186 36.73654785 49.59065186 36.73654785 48.15283203 36.46777344 C23.75751774 31.98791402 -0.56823797 30.82933283 -25.3125 30.8125 C-26.59821899 30.81086853 -26.59821899 30.81086853 -27.90991211 30.8092041 C-39.30733486 30.81084654 -50.6305535 31.20302904 -62 32 C-62.33 32.66 -62.66 33.32 -63 34 C-63 33.34 -63 32.68 -63 32 C-90.64551385 35.66066775 -90.64551385 35.66066775 -118 41 C-118.92748047 41.21237305 -119.85496094 41.42474609 -120.81054688 41.64355469 C-137.39901443 45.48960554 -154.04272395 49.81168843 -169.5625 56.9375 C-175.33277233 59.42226677 -180.78964485 60.17418827 -187 59 C-190.21460158 57.33453023 -192.35692183 55.28615634 -194 52 C-194.43011819 47.78980462 -194.4699635 44.11307145 -192.8125 40.1875 C-190.75363722 37.70266562 -188.65229919 35.83620713 -186 34 C-185.34 34 -184.68 34 -184 34 C-184.495 32.515 -184.495 32.515 -185 31 C-183.88625 30.87625 -182.7725 30.7525 -181.625 30.625 C-177.96896323 30.3534187 -177.96896323 30.3534187 -176 28 C-175.01 28 -174.02 28 -173 28 C-171.41444179 27.34490648 -169.85488929 26.6261176 -168.3125 25.875 C-143.1446469 14.20865143 -114.35760946 5.98221442 -86.68359375 3.4609375 C-85.46800781 3.30882812 -84.25242187 3.15671875 -83 3 C-82.67 2.34 -82.34 1.68 -82 1 C-82 1.66 -82 2.32 -82 3 C-80.98522583 2.87939209 -80.98522583 2.87939209 -79.94995117 2.75634766 C-10.77696961 -5.38848481 -10.77696961 -5.38848481 0 0 Z " fill="#013E95" transform="translate(228,280)"/>
<path d="M0 0 C0.33 0.99 0.66 1.98 1 3 C1.68320312 3.10828125 2.36640625 3.2165625 3.0703125 3.328125 C18.0342348 6.75985118 31.93103742 16.35496147 45 24 C45.96325195 24.55026855 46.92650391 25.10053711 47.91894531 25.66748047 C48.83514648 26.19873535 49.75134766 26.72999023 50.6953125 27.27734375 C51.52305176 27.75292725 52.35079102 28.22851074 53.20361328 28.71850586 C53.7964209 29.14139893 54.38922852 29.56429199 55 30 C55 30.66 55 31.32 55 32 C55.90605012 32.35768085 55.90605012 32.35768085 56.83040428 32.72258759 C60.96826869 35.15887528 62.43645918 39.62164942 64 44 C64.62887305 47.68461671 64.64675724 51.25135423 64.58349609 54.98242188 C64.58583252 56.0309584 64.58816895 57.07949493 64.59057617 58.1598053 C64.59217989 61.59664142 64.55826198 65.03210616 64.5234375 68.46875 C64.51663941 70.87430335 64.51192244 73.2798634 64.50918579 75.6854248 C64.49581176 82.0012114 64.45158038 88.31643109 64.40161133 94.63201904 C64.36622744 99.77509915 64.35313169 104.91812202 64.34119225 110.06130219 C64.32635751 116.21798647 64.30119263 122.37461192 64.2734375 128.53125 C64.26852673 129.69639633 64.26361595 130.86154266 64.25855637 132.06199646 C64.24216014 135.38058722 64.21875215 138.69904926 64.19287109 142.01757812 C64.18861115 142.98514542 64.1843512 143.95271271 64.17996216 144.94960022 C64.12301939 151.01723935 63.70910481 156.97374808 63 163 C59.53058454 162.54177532 56.32604951 162.10868317 53 161 C52.67 161.66 52.34 162.32 52 163 C49.69 162.34 47.38 161.68 45 161 C45 160.01 45 159.02 45 158 C43.83984375 157.87496094 42.6796875 157.74992188 41.484375 157.62109375 C37.31323783 157.09924304 33.30553605 156.15162634 29.25 155.0625 C19.1595509 152.46291074 9.47136038 150.58299892 -1 151 C-1 150.01 -1 149.02 -1 148 C-2.65 148 -4.3 148 -6 148 C-6 140.74 -6 133.48 -6 126 C-6.66 126 -7.32 126 -8 126 C-8 125.01 -8 124.02 -8 123 C-7.34 123 -6.68 123 -6 123 C-6 82.74 -6 42.48 -6 1 C-4.35 1 -2.7 1 -1 1 C-0.67 0.67 -0.34 0.34 0 0 Z " fill="#024197" transform="translate(266,117)"/>
<path d="M0 0 C0 24.75 0 49.5 0 75 C-4.32199254 76.44066418 -7.94332431 77.44659516 -12.359375 78.18359375 C-13.55820313 78.38919922 -14.75703125 78.59480469 -15.9921875 78.80664062 C-18.48156164 79.22455531 -20.97114293 79.64123806 -23.4609375 80.05664062 C-30.50625909 81.26731955 -37.19881864 82.82101549 -44 85 C-45.60056454 85.45862517 -47.20345554 85.90921058 -48.80859375 86.3515625 C-49.57494141 86.56296875 -50.34128906 86.774375 -51.13085938 86.9921875 C-52.27264648 87.30542969 -52.27264648 87.30542969 -53.4375 87.625 C-54.99889553 88.05396885 -56.56010182 88.48362728 -58.12109375 88.9140625 C-58.7958374 89.0992041 -59.47058105 89.2843457 -60.16577148 89.47509766 C-61.79024096 89.93997312 -63.39703111 90.46567704 -65 91 C-66.6296082 89.3703918 -66.19928373 87.50782896 -66.26879883 85.25585938 C-66.31808281 83.73792786 -66.31808281 83.73792786 -66.36836243 82.18933105 C-66.39762314 81.08528931 -66.42688385 79.98124756 -66.45703125 78.84375 C-66.48729904 77.71231567 -66.51756683 76.58088135 -66.54875183 75.41516113 C-66.60968559 73.01089886 -66.66747529 70.60655521 -66.72241211 68.20214844 C-66.7821281 65.74812861 -66.8510324 63.29431395 -66.92944336 60.84082031 C-67.04256458 57.30034124 -67.12780197 53.76013133 -67.20703125 50.21875 C-67.24641312 49.1309021 -67.28579498 48.0430542 -67.32637024 46.92224121 C-67.46049489 38.78484525 -66.00368704 32.69024407 -60.8125 26.3125 C-46.45854378 14.51035822 -28.93598347 8.96424073 -11.62451172 2.94213867 C-9.86548024 2.31068728 -8.12602416 1.62201328 -6.41064453 0.88012695 C-4 0 -4 0 0 0 Z " fill="#003E96" transform="translate(144,190)"/>
<path d="M0 0 C0 73.92 0 147.84 0 224 C-3.96 224 -7.92 224 -12 224 C-12 223.67 -12 223.34 -12 223 C-8.37 223 -4.74 223 -1 223 C-1 150.4 -1 77.8 -1 3 C-9.77947825 8.52773786 -9.77947825 8.52773786 -17.40234375 14.73828125 C-19.4286887 16.33854878 -21.63901347 17.18151417 -24.0390625 18.09375 C-29.07757746 20.42230671 -34.11671561 23.94299546 -37.86328125 28.03515625 C-40.1234682 30.11353657 -42.27130201 31.04562954 -45.10449219 32.16455078 C-48.5320591 33.6752584 -51.54212611 35.82898971 -54.625 37.9375 C-55.26695312 38.36740234 -55.90890625 38.79730469 -56.5703125 39.24023438 C-63.19221968 43.27250281 -63.19221968 43.27250281 -68 49 C-71.20006757 50.60003378 -74.3825946 52.16930086 -77.65553284 53.61759949 C-80.38991175 55.63365113 -80.94451701 56.73420251 -81.64848137 60.1066227 C-81.90721563 64.35425068 -81.93203134 68.55290849 -81.88647461 72.8059082 C-81.89436466 74.44211008 -81.90532647 76.0782996 -81.91912842 77.71446228 C-81.9478626 82.15239263 -81.93361792 86.58926867 -81.91168666 91.02719903 C-81.89605927 95.66642372 -81.91991429 100.30544077 -81.93959045 104.94462585 C-81.9708385 113.72774126 -81.9665519 122.51046599 -81.94951588 131.29360598 C-81.93184845 141.2936118 -81.95376854 151.29340804 -81.97902286 161.29338324 C-82.0300811 181.86232755 -82.03139621 202.43102715 -82 223 C-80.79529053 222.83734146 -79.59058105 222.67468292 -78.34936523 222.50709534 C-75.018042 222.09199265 -71.7711735 221.87807207 -68.41015625 221.88647461 C-67.38970215 221.88655014 -66.36924805 221.88662567 -65.31787109 221.88670349 C-64.24359863 221.89186478 -63.16932617 221.89702606 -62.0625 221.90234375 C-60.94182129 221.9037587 -59.82114258 221.90517365 -58.66650391 221.90663147 C-55.11097467 221.91219861 -51.55550998 221.92474502 -48 221.9375 C-45.579428 221.94251925 -43.158855 221.94708141 -40.73828125 221.95117188 C-34.82549906 221.96215728 -28.91275415 221.97886248 -23 222 C-23 222.33 -23 222.66 -23 223 C-39.5 223 -56 223 -73 223 C-73 223.66 -73 224.32 -73 225 C-76.63 225 -80.26 225 -84 225 C-84.39774736 203.04276085 -84.69720135 181.08611837 -84.88080692 159.12600327 C-84.9683398 148.92847781 -85.08758553 138.73319488 -85.2824707 128.53710938 C-85.45232606 119.64627881 -85.56168181 110.75707232 -85.59950441 101.86466432 C-85.62160612 97.15841901 -85.67322369 92.45681792 -85.79741096 87.75206757 C-86.5832578 56.80252687 -86.5832578 56.80252687 -80.33517456 50.12854004 C-76.86896466 47.32471708 -73.24796224 45.47409046 -69.10142326 43.88008881 C-65.81836312 42.50512331 -63.22375014 40.49823836 -60.375 38.375 C-53.94155065 33.93399951 -47.43925049 29.6000688 -40.92480469 25.27929688 C-38.98087341 23.98728776 -37.04068119 22.68984423 -35.1015625 21.390625 C-28.64282076 17.0657857 -22.15809066 12.8052475 -15.57421875 8.671875 C-11.98506548 6.3408316 -8.53563311 3.82745627 -5.09375 1.28515625 C-3 0 -3 0 0 0 Z " fill="#4F5987" transform="translate(245,38)"/>
<path d="M0 0 C0.33 0.99 0.66 1.98 1 3 C1.68320312 3.10828125 2.36640625 3.2165625 3.0703125 3.328125 C18.0342348 6.75985118 31.93103742 16.35496147 45 24 C45.96325195 24.55026855 46.92650391 25.10053711 47.91894531 25.66748047 C48.83514648 26.19873535 49.75134766 26.72999023 50.6953125 27.27734375 C51.52305176 27.75292725 52.35079102 28.22851074 53.20361328 28.71850586 C53.7964209 29.14139893 54.38922852 29.56429199 55 30 C55 30.66 55 31.32 55 32 C55.90605012 32.35768085 55.90605012 32.35768085 56.83040428 32.72258759 C60.96826869 35.15887528 62.43645918 39.62164942 64 44 C64.62887305 47.68461671 64.64675724 51.25135423 64.58349609 54.98242188 C64.58583252 56.0309584 64.58816895 57.07949493 64.59057617 58.1598053 C64.59217989 61.59664142 64.55826198 65.03210616 64.5234375 68.46875 C64.51663941 70.87430335 64.51192244 73.2798634 64.50918579 75.6854248 C64.49581176 82.0012114 64.45158038 88.31643109 64.40161133 94.63201904 C64.36622744 99.77509915 64.35313169 104.91812202 64.34119225 110.06130219 C64.32635751 116.21798647 64.30119263 122.37461192 64.2734375 128.53125 C64.26852673 129.69639633 64.26361595 130.86154266 64.25855637 132.06199646 C64.24216014 135.38058722 64.21875215 138.69904926 64.19287109 142.01757812 C64.18861115 142.98514542 64.1843512 143.95271271 64.17996216 144.94960022 C64.12301939 151.01723935 63.70910481 156.97374808 63 163 C59.53058454 162.54177532 56.32604951 162.10868317 53 161 C52.67 161.66 52.34 162.32 52 163 C49.69 162.34 47.38 161.68 45 161 C45 160.01 45 159.02 45 158 C43.83984375 157.87496094 42.6796875 157.74992188 41.484375 157.62109375 C37.31323783 157.09924304 33.30553605 156.15162634 29.25 155.0625 C19.1595509 152.46291074 9.47136038 150.58299892 -1 151 C-1 150.01 -1 149.02 -1 148 C-2.65 148 -4.3 148 -6 148 C-6 140.74 -6 133.48 -6 126 C-6.66 126 -7.32 126 -8 126 C-8 125.01 -8 124.02 -8 123 C-7.34 123 -6.68 123 -6 123 C-6 82.74 -6 42.48 -6 1 C-4.35 1 -2.7 1 -1 1 C-0.67 0.67 -0.34 0.34 0 0 Z M-5 3 C-5 50.52 -5 98.04 -5 147 C2.63167123 148.71830861 2.63167123 148.71830861 10.125 149.4375 C16.29916484 149.84000667 22.1618295 150.95406741 28.20703125 152.23828125 C33.10641807 153.22219518 38.02438444 153.9123308 42.9765625 154.5703125 C45.67874718 154.95434391 48.33072353 155.43439123 51 156 C51 156.66 51 157.32 51 158 C51.99 158 52.98 158 54 158 C54 158.66 54 159.32 54 160 C57.58327753 161.00217064 57.58327753 161.00217064 61 160 C62.12417657 153.78519094 62.15950902 147.60568175 62.17700195 141.3046875 C62.18357315 140.26298401 62.19014435 139.22128052 62.19691467 138.14801025 C62.21651978 134.72367263 62.22827781 131.29937847 62.23828125 127.875 C62.24235678 126.70080505 62.2464323 125.52661011 62.25063133 124.3168335 C62.27143131 118.10901062 62.28576267 111.90120948 62.29516602 105.69335938 C62.30625499 99.29105307 62.3407013 92.88909194 62.38033772 86.48690796 C62.40648954 81.55232095 62.4148563 76.61781672 62.41844749 71.6831665 C62.42331223 69.32291313 62.4349229 66.96266342 62.45348549 64.60247803 C62.47785946 61.29980985 62.47691538 57.99804327 62.4699707 54.6953125 C62.48278076 53.72676331 62.49559082 52.75821411 62.50878906 51.76031494 C62.45700756 44.9879407 61.1727213 39.55645565 56.57410145 34.40164185 C50.75321596 28.77998946 42.99281761 24.98375547 36 21 C35.4121875 20.66210449 34.824375 20.32420898 34.21875 19.97607422 C25.96735943 15.27137511 17.44505949 11.31285371 8.75 7.5 C7.73679687 7.05406494 6.72359375 6.60812988 5.6796875 6.14868164 C4.72835938 5.7386792 3.77703125 5.32867676 2.796875 4.90625 C1.51828613 4.35420898 1.51828613 4.35420898 0.21386719 3.79101562 C-2.07902431 2.83176602 -2.07902431 2.83176602 -5 3 Z " fill="#24345A" transform="translate(266,117)"/>
<path d="M0 0 C0.66 0 1.32 0 2 0 C1.99907821 1.13197752 1.99815641 2.26395504 1.99720669 3.43023491 C1.97503584 30.93671793 1.9585879 58.4431998 1.94818783 85.94968987 C1.94302513 99.25145747 1.93598293 112.55321693 1.92456055 125.85498047 C1.91461291 137.44484464 1.90814638 149.03470455 1.90591151 160.62457287 C1.90460454 166.76486624 1.90151953 172.9051474 1.89426994 179.04543686 C1.88750848 184.81878483 1.8853833 190.59211551 1.88689232 196.36546707 C1.88661605 198.48997847 1.88461167 200.61449042 1.88079453 202.73899841 C1.87585533 205.62850062 1.87700258 208.5179366 1.87974548 211.40744019 C1.87683264 212.25762313 1.8739198 213.10780607 1.87091869 213.98375213 C1.77300043 218.12451304 1.77300043 218.12451304 3 222 C-6.50082245 221.89266 -16.00156348 221.78006002 -25.50224209 221.66066074 C-29.913334 221.60539168 -34.32443249 221.55196546 -38.7355957 221.50268555 C-42.98906987 221.45510055 -47.24246089 221.40276014 -51.49583626 221.34705925 C-53.12219243 221.32660902 -54.74857142 221.30790044 -56.37496758 221.29092598 C-58.64516363 221.26694073 -60.91520113 221.23687865 -63.18530273 221.20532227 C-64.47991928 221.18977798 -65.77453583 221.1742337 -67.10838318 221.15821838 C-70 221 -70 221 -71 220 C-73.67058851 219.85884839 -76.32432238 219.95752893 -79 220 C-79.11673236 198.42543707 -79.20493867 176.85092611 -79.25906086 155.2761116 C-79.28485721 145.25883689 -79.32003504 135.24175825 -79.37719727 125.22460938 C-79.42698846 116.49501312 -79.4592806 107.76555884 -79.47044247 99.03582454 C-79.47696852 94.41218543 -79.49233605 89.78895251 -79.52865028 85.16544342 C-79.56254223 80.81516749 -79.57306684 76.46546576 -79.56553841 72.11507034 C-79.56691602 70.51706193 -79.57688936 68.91903469 -79.59602737 67.32114029 C-79.62086144 65.14105809 -79.61494345 62.96315122 -79.60127258 60.78302002 C-79.60588155 59.56256611 -79.61049051 58.3421122 -79.61523914 57.08467484 C-79 54 -79 54 -76.46242046 51.57606125 C-75.64982171 51.05596104 -74.83722296 50.53586082 -74 50 C-73.34 50.33 -72.68 50.66 -72 51 C-73.21772362 51.78367384 -73.21772362 51.78367384 -74.46004772 52.58317947 C-77.25580295 54.78432116 -77.25580295 54.78432116 -77.63085651 58.03782272 C-77.63362189 59.2361536 -77.63638727 60.43448448 -77.63923645 61.66912842 C-77.64759213 62.33816515 -77.6559478 63.00720189 -77.66455668 63.69651246 C-77.68649552 65.93720289 -77.67287892 68.17625562 -77.65942383 70.41699219 C-77.66787611 72.02348577 -77.67851979 73.6299691 -77.69119263 75.23643494 C-77.71937802 79.59777171 -77.71686056 83.95861733 -77.70889878 88.32001781 C-77.70577729 92.87782766 -77.73079756 97.43548008 -77.75285339 101.9932251 C-77.79033285 110.6239912 -77.80244369 119.25459972 -77.8054778 127.88543916 C-77.8101644 137.71129769 -77.84307491 147.53699795 -77.87837565 157.36278677 C-77.95035859 177.57517317 -77.98683466 197.78749536 -78 218 C-76.847676 217.92931368 -75.695352 217.85862736 -74.50810909 217.78579903 C-72.97317848 217.69316093 -71.43824357 217.60059409 -69.90330505 217.50808716 C-69.14655282 217.46147603 -68.3898006 217.4148649 -67.61011648 217.36684132 C-61.2488729 216.98577719 -54.90794686 216.85424155 -48.53515625 216.8671875 C-46.90881508 216.86575241 -46.90881508 216.86575241 -45.24961853 216.86428833 C-42.99217673 216.86361659 -40.73473286 216.86539936 -38.47729492 216.86962891 C-35.04406396 216.875029 -31.61096159 216.86963049 -28.17773438 216.86328125 C-25.96354138 216.8639415 -23.74934847 216.86522155 -21.53515625 216.8671875 C-20.0192263 216.86415115 -20.0192263 216.86415115 -18.47267151 216.86105347 C-12.2575337 216.88134605 -6.17110437 217.25861988 0 218 C-0.00222061 217.28500839 -0.00444122 216.57001678 -0.00672913 215.83335876 C-0.03586096 205.86808398 -0.05249967 195.90281125 -0.0625 185.9375 C-0.06335602 185.09100513 -0.06421204 184.24451027 -0.06509399 183.37236404 C-0.10016823 143.72602785 0.19288091 104.082331 0.5 64.4375 C0.50597372 63.6654112 0.51194743 62.8933224 0.51810217 62.09783697 C0.67320723 42.06517934 0.83377172 22.03256852 1 2 C0.01 1.505 0.01 1.505 -1 1 C-0.67 0.67 -0.34 0.34 0 0 Z " fill="#112985" transform="translate(242,41)"/>
<path d="M0 0 C2.77902645 0.00538002 5.55789233 0.00000384 8.33691406 -0.00634766 C18.98279768 -0.00988379 29.53370312 0.30246257 40.14941406 1.13037109 C40.14941406 1.79037109 40.14941406 2.45037109 40.14941406 3.13037109 C41.36951172 3.11296875 41.36951172 3.11296875 42.61425781 3.09521484 C49.58347265 3.04033914 56.50431621 3.17809177 63.46191406 3.56787109 C64.20884521 3.60710693 64.95577637 3.64634277 65.7253418 3.68676758 C71.02695216 4.00790919 71.02695216 4.00790919 72.14941406 5.13037109 C75.06429842 5.67322405 77.97142249 6.16973691 80.89941406 6.63037109 C82.51932089 6.89007044 84.13911587 7.15046858 85.75878906 7.41162109 C86.51998047 7.53408203 87.28117188 7.65654297 88.06542969 7.78271484 C90.43848751 8.17859515 92.79560943 8.6328189 95.14941406 9.13037109 C95.14941406 9.79037109 95.14941406 10.45037109 95.14941406 11.13037109 C96.09945313 11.07880859 97.04949219 11.02724609 98.02832031 10.97412109 C102.92591466 10.97412109 107.40264162 12.31236288 112.08691406 13.63037109 C112.96154297 13.86884766 113.83617187 14.10732422 114.73730469 14.35302734 C116.87696846 14.93763493 119.01406979 15.53021453 121.14941406 16.13037109 C121.14941406 16.46037109 121.14941406 16.79037109 121.14941406 17.13037109 C116.06326476 17.31271704 111.86173499 16.72278779 106.96191406 15.38037109 C97.43391677 12.8756517 87.83569585 10.9177105 78.14941406 9.13037109 C77.20984863 8.95473633 76.2702832 8.77910156 75.30224609 8.59814453 C50.90693181 4.11828512 26.58117609 2.95970393 1.83691406 2.94287109 C0.55119507 2.94123962 0.55119507 2.94123962 -0.76049805 2.9395752 C-12.1579208 2.94121763 -23.48113944 3.33340013 -34.85058594 4.13037109 C-35.18058594 4.79037109 -35.51058594 5.45037109 -35.85058594 6.13037109 C-35.85058594 5.47037109 -35.85058594 4.81037109 -35.85058594 4.13037109 C-63.49609979 7.79103885 -63.49609979 7.79103885 -90.85058594 13.13037109 C-91.77806641 13.34274414 -92.70554687 13.55511719 -93.66113281 13.77392578 C-110.24960036 17.61997663 -126.89330989 21.94205952 -142.41308594 29.06787109 C-148.18335826 31.55263786 -153.64023079 32.30455936 -159.85058594 31.13037109 C-163.06518752 29.46490132 -165.20750777 27.41652744 -166.85058594 24.13037109 C-166.92009135 22.59013113 -166.93510951 21.04702122 -166.91308594 19.50537109 C-166.9040625 18.68810547 -166.89503906 17.87083984 -166.88574219 17.02880859 C-166.87414062 16.40232422 -166.86253906 15.77583984 -166.85058594 15.13037109 C-166.52058594 15.13037109 -166.19058594 15.13037109 -165.85058594 15.13037109 C-165.85058594 17.77037109 -165.85058594 20.41037109 -165.85058594 23.13037109 C-165.19058594 23.13037109 -164.53058594 23.13037109 -163.85058594 23.13037109 C-163.19058594 23.95537109 -162.53058594 24.78037109 -161.85058594 25.63037109 C-158.09319956 28.76152641 -156.31969651 28.57017745 -151.60595703 28.44628906 C-146.96850261 27.91458022 -142.93957453 26.24320268 -138.66308594 24.44287109 C-136.80191164 23.69996607 -134.93992804 22.95908545 -133.07714844 22.22021484 C-132.17899414 21.85911621 -131.28083984 21.49801758 -130.35546875 21.12597656 C-105.47423212 11.23653378 -78.59519068 6.44071253 -52.16308594 2.94287109 C-50.91712646 2.77577637 -49.67116699 2.60868164 -48.38745117 2.43652344 C-32.27686061 0.39203759 -16.22339473 -0.03724905 0 0 Z " fill="#3E4A80" transform="translate(200.8505859375,307.86962890625)"/>
<path d="M0 0 C1.32 0 2.64 0 4 0 C4 24.75 4 49.5 4 75 C-0.32199254 76.44066418 -3.94332431 77.44659516 -8.359375 78.18359375 C-9.55820313 78.38919922 -10.75703125 78.59480469 -11.9921875 78.80664062 C-14.48156164 79.22455531 -16.97114293 79.64123806 -19.4609375 80.05664062 C-26.50625909 81.26731955 -33.19881864 82.82101549 -40 85 C-41.60056454 85.45862517 -43.20345554 85.90921058 -44.80859375 86.3515625 C-45.57494141 86.56296875 -46.34128906 86.774375 -47.13085938 86.9921875 C-48.27264648 87.30542969 -48.27264648 87.30542969 -49.4375 87.625 C-50.99889553 88.05396885 -52.56010182 88.48362728 -54.12109375 88.9140625 C-54.7958374 89.0992041 -55.47058105 89.2843457 -56.16577148 89.47509766 C-57.79024096 89.93997312 -59.39703111 90.46567704 -61 91 C-62.6296082 89.3703918 -62.19928373 87.50782896 -62.26879883 85.25585938 C-62.31808281 83.73792786 -62.31808281 83.73792786 -62.36836243 82.18933105 C-62.39762314 81.08528931 -62.42688385 79.98124756 -62.45703125 78.84375 C-62.48729904 77.71231567 -62.51756683 76.58088135 -62.54875183 75.41516113 C-62.60968559 73.01089886 -62.66747529 70.60655521 -62.72241211 68.20214844 C-62.7821281 65.74812861 -62.8510324 63.29431395 -62.92944336 60.84082031 C-63.04256458 57.30034124 -63.12780197 53.76013133 -63.20703125 50.21875 C-63.24641312 49.1309021 -63.28579498 48.0430542 -63.32637024 46.92224121 C-63.46049489 38.78484525 -62.00368704 32.69024407 -56.8125 26.3125 C-47.03641139 18.2743827 -31.02680289 8 -18 8 C-18.33 8.99 -18.66 9.98 -19 11 C-21.35629526 12.02803616 -23.63112892 12.87949662 -26.0625 13.6875 C-32.14059155 15.83652964 -37.97567866 18.25495888 -43.75 21.125 C-44.41652588 21.44944092 -45.08305176 21.77388184 -45.76977539 22.1081543 C-49.47619357 23.98300913 -52.15142226 26.00500004 -55 29 C-55.66 29 -56.32 29 -57 29 C-59.2599395 35.31453685 -59.25901998 41.17793714 -59.1953125 47.83984375 C-59.19106766 49.52298424 -59.19106766 49.52298424 -59.18673706 51.24012756 C-59.17558775 54.80602918 -59.15049251 58.37167494 -59.125 61.9375 C-59.11496343 64.36262657 -59.10583876 66.78775709 -59.09765625 69.21289062 C-59.07566559 75.14201363 -59.04224027 81.07098853 -59 87 C-58.03578125 86.71125 -57.0715625 86.4225 -56.078125 86.125 C-54.81484375 85.75375 -53.5515625 85.3825 -52.25 85 C-50.37054688 84.443125 -50.37054688 84.443125 -48.453125 83.875 C-45 83 -45 83 -41 83 C-41 82.34 -41 81.68 -41 81 C-33.18812415 78.27526408 -25.36131474 76.32885169 -17.25 74.75 C-16.37577393 74.57500977 -15.50154785 74.40001953 -14.60083008 74.21972656 C-13.7477124 74.05956055 -12.89459473 73.89939453 -12.015625 73.734375 C-11.26571289 73.59225586 -10.51580078 73.45013672 -9.74316406 73.30371094 C-5.8512479 72.87281527 -1.91569694 73 2 73 C2 50.23 2 27.46 2 4 C-3.89754795 4.76815738 -3.89754795 4.76815738 -9.1875 6.5 C-11.77190721 7.55271169 -14.27855095 8.37243747 -17 9 C-17 8.01 -17 7.02 -17 6 C-15.85660156 5.65066406 -14.71320313 5.30132812 -13.53515625 4.94140625 C-12.04422012 4.48193537 -10.55333745 4.02229099 -9.0625 3.5625 C-7.93038086 3.21735352 -7.93038086 3.21735352 -6.77539062 2.86523438 C-3.09791548 1.96998264 -3.09791548 1.96998264 0 0 Z " fill="#11286A" transform="translate(140,190)"/>
<path d="M0 0 C0 0.66 0 1.32 0 2 C2.90406283 3.45203142 5.73200199 3.50887331 8.95703125 3.8671875 C10.39520508 4.0323538 11.83335532 4.19772555 13.27148438 4.36328125 C15.52402669 4.61828604 17.77676762 4.87105815 20.0300293 5.11962891 C29.54532427 6.17606059 38.69407833 7.67854351 48 10 C49.51116807 10.32767478 51.02403979 10.64766757 52.5390625 10.95703125 C62.81703072 13.09268097 72.75161506 15.89574851 82.70361328 19.23095703 C84.19471681 19.7303166 85.68779574 20.22382975 87.18310547 20.71044922 C95.74123408 23.49631374 103.9713946 26.74425325 112.125 30.5625 C112.90681641 30.92641846 113.68863281 31.29033691 114.49414062 31.6652832 C120.31721995 34.46566184 126.07520168 37.41355225 130 42.6875 C131.41287637 47.36765296 131.36843244 51.30041202 130 56 C127.11396099 59.79741975 127.11396099 59.79741975 124 61 C116.00774155 62.07131318 109.54110447 60.21916915 102.25 57.125 C100.4645802 56.39588917 98.67814077 55.66926955 96.890625 54.9453125 C96.05724609 54.60274414 95.22386719 54.26017578 94.36523438 53.90722656 C92.22965252 53.0880872 90.13298798 52.44306861 87.921875 51.8671875 C86.47554687 51.43792969 86.47554687 51.43792969 85 51 C84.67 50.34 84.34 49.68 84 49 C82.515 48.01 82.515 48.01 81 47 C84.03437501 47.43348214 86.84420401 47.94688773 89.75 48.9375 C93.44118034 50.14423203 97.10106213 50.79718828 100.92578125 51.4375 C101.61027344 51.623125 102.29476562 51.80875 103 52 C103.33 52.66 103.66 53.32 104 54 C109.96187336 57.24117719 116.21790151 59.26830582 123 58 C126.2071208 56.78475509 126.2071208 56.78475509 128 54 C128.71142336 50.84857088 128.89287001 48.1145407 128 45 C124.37730093 40.56150228 120.13221799 38.12511089 115.125 35.5625 C114.37395996 35.17344482 113.62291992 34.78438965 112.84912109 34.38354492 C90.08186137 22.78888505 64.74326191 16.00642636 39.59130859 11.98754883 C36.56107484 11.49735267 33.68986761 10.90569292 30.75 10.01171875 C25.6692424 8.64097269 20.59806072 8.07942037 15.375 7.5 C14.25649658 7.37254395 13.13799316 7.24508789 11.9855957 7.11376953 C1.81952926 6.0006607 -8.36036004 5.26771706 -18.56689453 4.64648438 C-19.72688965 4.57494141 -20.88688477 4.50339844 -22.08203125 4.4296875 C-23.10530518 4.37022949 -24.1285791 4.31077148 -25.18286133 4.24951172 C-27.85277887 4.01303926 -30.38554773 3.58072304 -33 3 C-33 2.67 -33 2.34 -33 2 C-30.02076997 1.97272322 -27.04179621 1.95302872 -24.0625 1.9375 C-23.23169922 1.92912109 -22.40089844 1.92074219 -21.54492188 1.91210938 C-15.94773559 1.89033044 -10.55266418 2.28840732 -5 3 C-5 2.34 -5 1.68 -5 1 C-3 0 -3 0 0 0 Z " fill="#39497A" transform="translate(242,278)"/>
<path d="M0 0 C-0.99 0.66 -1.98 1.32 -3 2 C-3.4658791 4.97289199 -3.4658791 4.97289199 -3.39872742 8.54251099 C-3.40537424 9.22208953 -3.41202107 9.90166807 -3.41886932 10.6018399 C-3.43759254 12.8898208 -3.43488791 15.17728303 -3.43237305 17.46533203 C-3.44138456 19.10108179 -3.45171027 20.73682476 -3.46325684 22.37255859 C-3.49092487 26.82272909 -3.50012458 31.27277182 -3.50611091 35.72301722 C-3.51546918 40.3702368 -3.54167038 45.01735997 -3.56611633 49.66452026 C-3.60985537 58.46884409 -3.63835677 67.27314929 -3.66143972 76.07754886 C-3.6884518 86.09922522 -3.73236568 96.12080494 -3.77772844 106.14241242 C-3.8706807 126.76155637 -3.94231288 147.38072923 -4 168 C-2.79529053 167.83734146 -1.59058105 167.67468292 -0.34936523 167.50709534 C2.981958 167.09199265 6.2288265 166.87807207 9.58984375 166.88647461 C10.61029785 166.88655014 11.63075195 166.88662567 12.68212891 166.88670349 C13.75640137 166.89186478 14.83067383 166.89702606 15.9375 166.90234375 C17.05817871 166.9037587 18.17885742 166.90517365 19.33349609 166.90663147 C22.88902533 166.91219861 26.44449002 166.92474502 30 166.9375 C32.420572 166.94251925 34.841145 166.94708141 37.26171875 166.95117188 C43.17450094 166.96215728 49.08724585 166.97886248 55 167 C55 167.33 55 167.66 55 168 C38.5 168 22 168 5 168 C5 168.66 5 169.32 5 170 C1.37 170 -2.26 170 -6 170 C-6 113.9 -6 57.8 -6 0 C-2 -1 -2 -1 0 0 Z " fill="#394271" transform="translate(167,93)"/>
<path d="M0 0 C0.495 0.99 0.495 0.99 1 2 C2.07378906 1.855625 3.14757812 1.71125 4.25390625 1.5625 C5.69007356 1.37476571 7.12627324 1.18727891 8.5625 1 C9.26697266 0.90460938 9.97144531 0.80921875 10.69726562 0.7109375 C15.17367855 0.13333583 19.48661238 -0.09489383 24 0 C24 0.66 24 1.32 24 2 C22.88028809 2.14099121 21.76057617 2.28198242 20.60693359 2.42724609 C16.43524199 2.95416858 12.26460722 3.48908503 8.09423828 4.02636719 C6.29243158 4.25737634 4.490349 4.4862445 2.68798828 4.71289062 C0.09070778 5.03988121 -2.50546855 5.3746718 -5.1015625 5.7109375 C-6.30191635 5.85950699 -6.30191635 5.85950699 -7.52651978 6.01107788 C-11.90833699 6.58710585 -15.82294179 7.4902613 -20 9 C-22.54181651 9.51757671 -25.07039151 9.9980307 -27.625 10.4375 C-32.6014277 11.3243088 -37.48528294 12.32656477 -42.375 13.625 C-47.56534416 14.98302155 -52.65187703 15.65686822 -58 16 C-58 16.66 -58 17.32 -58 18 C-63.19038812 20.88354896 -67.6311438 22.47902538 -73.4609375 23.5078125 C-76.05624438 24.01090276 -78.53635296 24.6596071 -81.0625 25.4375 C-81.79597656 25.66308594 -82.52945313 25.88867188 -83.28515625 26.12109375 C-85.36747101 26.93571279 -85.36747101 26.93571279 -86 30 C-87.63671875 31.0625 -87.63671875 31.0625 -89.6875 32 C-90.41195312 32.33773437 -91.13640625 32.67546875 -91.8828125 33.0234375 C-92.58148438 33.34570312 -93.28015625 33.66796875 -94 34 C-95.010625 34.53625 -96.02125 35.0725 -97.0625 35.625 C-100 37 -100 37 -103.6875 38 C-106.80364137 38.94072192 -108.05631251 39.48463971 -110 42 C-109.82701599 39.66471585 -109.29774631 38.30822418 -107.66796875 36.62109375 C-103.42788462 33 -103.42788462 33 -101 33 C-101.495 31.515 -101.495 31.515 -102 30 C-100.88625 29.87625 -99.7725 29.7525 -98.625 29.625 C-94.96896323 29.3534187 -94.96896323 29.3534187 -93 27 C-92.01 27 -91.02 27 -90 27 C-88.41444179 26.34490648 -86.85488929 25.6261176 -85.3125 24.875 C-58.89370576 12.62878809 -28.99868972 4.69027758 0 2 C0 1.34 0 0.68 0 0 Z " fill="#2A417A" transform="translate(145,281)"/>
<path d="M0 0 C17 7 17 7 19 9 C14 8 14 8 2 3 C1.67 48.87 1.34 94.74 1 142 C4.96 142.33 8.92 142.66 13 143 C15.37054681 143.41000876 17.73379668 143.87004139 20.078125 144.41015625 C21.25761719 144.67763672 22.43710937 144.94511719 23.65234375 145.22070312 C24.83957031 145.49849609 26.02679688 145.77628906 27.25 146.0625 C28.48363281 146.34416016 29.71726562 146.62582031 30.98828125 146.91601562 C33.99395375 147.60335934 36.99769583 148.2981169 40 149 C40 149.33 40 149.66 40 150 C33.34490695 149.39499154 26.84571841 148.30328353 20.29321289 147.01635742 C16.74945164 146.35238919 13.45758196 145.93995507 9.84765625 146.03515625 C6 146 6 146 0 144 C0 96.48 0 48.96 0 0 Z " fill="#012588" transform="translate(263,120)"/>
<path d="M0 0 C-0.33 0.99 -0.66 1.98 -1 3 C-3.35629526 4.02803616 -5.63112892 4.87949662 -8.0625 5.6875 C-14.14059155 7.83652964 -19.97567866 10.25495888 -25.75 13.125 C-26.41652588 13.44944092 -27.08305176 13.77388184 -27.76977539 14.1081543 C-31.47619357 15.98300913 -34.15142226 18.00500004 -37 21 C-37.66 21 -38.32 21 -39 21 C-41.32622005 27.43533887 -41.25773906 33.48481621 -41.1953125 40.27734375 C-41.1924826 41.4438295 -41.18965271 42.61031525 -41.18673706 43.81214905 C-41.17558388 47.52070576 -41.15048786 51.22901685 -41.125 54.9375 C-41.11496393 57.45898088 -41.10583918 59.98046555 -41.09765625 62.50195312 C-41.07566044 68.6680519 -41.04223118 74.83400839 -41 81 C-41.66 81 -42.32 81 -43 81 C-43 65.16 -43 49.32 -43 33 C-43.66 33 -44.32 33 -45 33 C-43.84515986 25.3987388 -41.94939241 20.06335481 -35.75390625 15.2578125 C-26.25598821 8.90705007 -11.64467584 0 0 0 Z " fill="#344585" transform="translate(122,198)"/>
<path d="M0 0 C0.66 0.33 1.32 0.66 2 1 C1.67 48.85 1.34 96.7 1 146 C3.64 146.33 6.28 146.66 9 147 C11.00308143 147.33630166 13.00367213 147.68818853 15 148.0625 C15.94875 148.23910156 16.8975 148.41570312 17.875 148.59765625 C18.57625 148.73042969 19.2775 148.86320313 20 149 C20 149.33 20 149.66 20 150 C15.05 150 10.1 150 5 150 C5 149.01 5 148.02 5 147 C3.35 147 1.7 147 0 147 C0 139.74 0 132.48 0 125 C-0.66 125 -1.32 125 -2 125 C-2 124.01 -2 123.02 -2 122 C-1.34 122 -0.68 122 0 122 C0 81.74 0 41.48 0 0 Z " fill="#111E29" transform="translate(260,118)"/>
<path d="M0 0 C11.20289593 -0.29963169 22.32413526 0.22551079 33.5 0.9375 C34.20706085 0.98106628 34.9141217 1.02463257 35.64260864 1.06951904 C37.66834506 1.1957037 39.69356454 1.33010535 41.71875 1.46484375 C42.90404297 1.543396 44.08933594 1.62194824 45.31054688 1.70288086 C48 2 48 2 49 3 C51.91488435 3.54285296 54.82200843 4.03936581 57.75 4.5 C59.36990683 4.75969935 60.98970181 5.02009748 62.609375 5.28125 C63.37056641 5.40371094 64.13175781 5.52617187 64.91601562 5.65234375 C67.28907344 6.04822406 69.64619537 6.5024478 72 7 C72 7.66 72 8.32 72 9 C72.95003906 8.9484375 73.90007812 8.896875 74.87890625 8.84375 C79.7765006 8.84375 84.25322755 10.18199178 88.9375 11.5 C89.81212891 11.73847656 90.68675781 11.97695313 91.58789062 12.22265625 C93.72755439 12.80726384 95.86465572 13.39984344 98 14 C98 14.33 98 14.66 98 15 C92.9138507 15.18234594 88.71232093 14.59241669 83.8125 13.25 C74.28450271 10.74528061 64.68628179 8.78733941 55 7 C54.06043457 6.82436523 53.12086914 6.64873047 52.15283203 6.46777344 C34.8124323 3.28345074 17.57972125 1.89582836 0 1 C0 0.67 0 0.34 0 0 Z " fill="#334368" transform="translate(224,310)"/>
<path d="M0 0 C0.495 0.99 0.495 0.99 1 2 C2.07378906 1.855625 3.14757812 1.71125 4.25390625 1.5625 C5.69007356 1.37476571 7.12627324 1.18727891 8.5625 1 C9.26697266 0.90460938 9.97144531 0.80921875 10.69726562 0.7109375 C15.17367855 0.13333583 19.48661238 -0.09489383 24 0 C24 0.66 24 1.32 24 2 C22.88028809 2.14099121 21.76057617 2.28198242 20.60693359 2.42724609 C16.43524199 2.95416858 12.26460722 3.48908503 8.09423828 4.02636719 C6.29243158 4.25737634 4.490349 4.4862445 2.68798828 4.71289062 C0.09070778 5.03988121 -2.50546855 5.3746718 -5.1015625 5.7109375 C-5.9017984 5.80998383 -6.7020343 5.90903015 -7.52651978 6.01107788 C-11.90833699 6.58710585 -15.82294179 7.4902613 -20 9 C-22.54180377 9.51757411 -25.07041263 9.99797117 -27.625 10.4375 C-33.70909739 11.52326654 -39.67236066 12.8429108 -45.64453125 14.44921875 C-48 15 -48 15 -51 15 C-51 14.34 -51 13.68 -51 13 C-45.72637764 10.91199661 -40.65331583 9.31925609 -35.09765625 8.2109375 C-34.37565536 8.0621817 -33.65365448 7.9134259 -32.90977478 7.76016235 C-31.39531935 7.44962284 -29.88021526 7.14223122 -28.36450195 6.83789062 C-26.07005866 6.37651991 -23.77814628 5.90390756 -21.48632812 5.4296875 C-14.34822166 3.96792149 -7.27074503 2.61209913 0 2 C0 1.34 0 0.68 0 0 Z " fill="#3A578F" transform="translate(145,281)"/>
<path d="M0 0 C0.33 0.99 0.66 1.98 1 3 C1.68320312 3.10828125 2.36640625 3.2165625 3.0703125 3.328125 C18.0342348 6.75985118 31.93103742 16.35496147 45 24 C45.96325195 24.55026855 46.92650391 25.10053711 47.91894531 25.66748047 C48.83514648 26.19873535 49.75134766 26.72999023 50.6953125 27.27734375 C51.52305176 27.75292725 52.35079102 28.22851074 53.20361328 28.71850586 C53.7964209 29.14139893 54.38922852 29.56429199 55 30 C55 30.66 55 31.32 55 32 C55.61230469 32.24878906 56.22460938 32.49757812 56.85546875 32.75390625 C59.37359457 34.21707954 60.06046768 35.34158743 61.3125 37.9375 C61.65925781 38.62714844 62.00601563 39.31679687 62.36328125 40.02734375 C63 42 63 42 62 45 C61.74347656 44.43152344 61.48695313 43.86304688 61.22265625 43.27734375 C55.27713242 31.28620309 43.35575815 26.02793981 32 20 C31.35643555 19.6582373 30.71287109 19.31647461 30.04980469 18.96435547 C18.66055333 12.97724773 6.86634958 7.95700484 -5 3 C-4.67 2.34 -4.34 1.68 -4 1 C-1.9375 0.375 -1.9375 0.375 0 0 Z " fill="#3D5180" transform="translate(266,117)"/>
<path d="M0 0 C0 1.33333333 0 2.66666667 0 4 C-1.90168945 4.10489746 -1.90168945 4.10489746 -3.84179688 4.21191406 C-36.13516645 5.90960779 -36.13516645 5.90960779 -68.07861328 10.67333984 C-70.4065903 11.06912552 -72.64426833 11.13970597 -75 11 C-72.50352758 8.50352758 -71.13708788 8.49830871 -67.6796875 7.96484375 C-66.59349121 7.7956543 -65.50729492 7.62646484 -64.38818359 7.45214844 C-62.64915771 7.19739746 -62.64915771 7.19739746 -60.875 6.9375 C-59.70404785 6.7612207 -58.5330957 6.58494141 -57.32666016 6.40332031 C-48.5528791 5.12489305 -39.86254494 4.2677506 -31 4 C-31 3.34 -31 2.68 -31 2 C-21.12657311 -0.81085598 -10.16056444 -0.13709907 0 0 Z " fill="#0F2C7B" transform="translate(200,279)"/>
<path d="M0 0 C1.32 0 2.64 0 4 0 C4 24.42 4 48.84 4 74 C3.67 74 3.34 74 3 74 C3 50.57 3 27.14 3 3 C-2.28 4.65 -7.56 6.3 -13 8 C-14.32 8.33 -15.64 8.66 -17 9 C-17 8.01 -17 7.02 -17 6 C-15.85660156 5.65066406 -14.71320313 5.30132812 -13.53515625 4.94140625 C-12.04422012 4.48193537 -10.55333745 4.02229099 -9.0625 3.5625 C-8.30775391 3.33240234 -7.55300781 3.10230469 -6.77539062 2.86523438 C-3.09791548 1.96998264 -3.09791548 1.96998264 0 0 Z " fill="#4C6691" transform="translate(140,190)"/>
<path d="M0 0 C7.30256064 -0.5961274 13.75654722 1.32735177 20.70605469 3.34082031 C23.22888614 4.06577188 25.75828056 4.76426669 28.2890625 5.4609375 C30.13038902 5.97330944 31.97153623 6.48632621 33.8125 7 C35.10063599 7.35505615 35.10063599 7.35505615 36.41479492 7.71728516 C42.45109221 9.4273665 48.21811302 11.56779558 54 14 C54 14.66 54 15.32 54 16 C54.66 16.33 55.32 16.66 56 17 C51.90049808 16.48756226 48.32811484 15.43367793 44.484375 13.9453125 C34.22617577 10.04203544 23.93037811 7.12397847 13.23364258 4.69970703 C8.72697808 3.67587197 4.35787296 2.56711688 0 1 C0 0.67 0 0.34 0 0 Z " fill="#3A5084" transform="translate(287,289)"/>
<path d="M0 0 C3.03437501 0.43348214 5.84420401 0.94688773 8.75 1.9375 C12.44118034 3.14423203 16.10106213 3.79718828 19.92578125 4.4375 C20.61027344 4.623125 21.29476563 4.80875 22 5 C22.33 5.66 22.66 6.32 23 7 C25.34038186 8.13102526 25.34038186 8.13102526 28.0625 9.125 C29.44115234 9.65480469 29.44115234 9.65480469 30.84765625 10.1953125 C31.55792969 10.46085937 32.26820313 10.72640625 33 11 C33 11.66 33 12.32 33 13 C36.3 13 39.6 13 43 13 C43 13.33 43 13.66 43 14 C34.83164655 14.54862075 28.74770281 13.30684451 21.25 10.125 C19.4645802 9.39588917 17.67814077 8.66926955 15.890625 7.9453125 C15.05724609 7.60274414 14.22386719 7.26017578 13.36523438 6.90722656 C11.22965252 6.0880872 9.13298798 5.44306861 6.921875 4.8671875 C5.95765625 4.58101563 4.9934375 4.29484375 4 4 C3.67 3.34 3.34 2.68 3 2 C2.01 1.34 1.02 0.68 0 0 Z " fill="#2F447B" transform="translate(323,325)"/>
<path d="M0 0 C0.33 0 0.66 0 1 0 C1 2.64 1 5.28 1 8 C1.66 8 2.32 8 3 8 C3.66 8.825 4.32 9.65 5 10.5 C8.67489086 13.56240905 10.51672571 13.71087958 15.16796875 13.515625 C19.55667508 12.71657778 23.36181326 10.88025671 27.3359375 8.8984375 C30 8 30 8 32.3515625 8.8515625 C32.89554688 9.23054688 33.43953125 9.60953125 34 10 C16.54550589 18.01189893 16.54550589 18.01189893 7 16 C3.79073273 14.32159011 1.64452441 12.28904881 0 9 C-0.06950541 7.45976004 -0.08452357 5.91665012 -0.0625 4.375 C-0.05347656 3.55773437 -0.04445312 2.74046875 -0.03515625 1.8984375 C-0.02355469 1.27195312 -0.01195312 0.64546875 0 0 Z " fill="#354A77" transform="translate(34,323)"/>
<path d="M0 0 C0.33 0 0.66 0 1 0 C1 15.51 1 31.02 1 47 C3.64 47.33 6.28 47.66 9 48 C11.00308143 48.33630166 13.00367213 48.68818853 15 49.0625 C15.94875 49.23910156 16.8975 49.41570312 17.875 49.59765625 C18.57625 49.73042969 19.2775 49.86320312 20 50 C20 50.33 20 50.66 20 51 C15.05 51 10.1 51 5 51 C5 50.01 5 49.02 5 48 C3.35 48 1.7 48 0 48 C0 40.74 0 33.48 0 26 C-0.66 26 -1.32 26 -2 26 C-2 25.01 -2 24.02 -2 23 C-1.34 23 -0.68 23 0 23 C0 15.41 0 7.82 0 0 Z " fill="#15202A" transform="translate(260,217)"/>
<path d="M0 0 C6.7972913 -0.36396495 13.16414943 0.99640564 19.8125 2.3125 C20.93720703 2.52583984 22.06191406 2.73917969 23.22070312 2.95898438 C29.95111313 4.26908743 36.47984142 5.87524644 43 8 C43 8.33 43 8.66 43 9 C37.9138507 9.18234594 33.71232093 8.59241669 28.8125 7.25 C19.29646066 4.7218719 9.66474005 2.86165075 0 1 C0 0.67 0 0.34 0 0 Z " fill="#334367" transform="translate(279,316)"/>
<path d="M0 0 C0.33 0.99 0.66 1.98 1 3 C1.65742188 3.09539062 2.31484375 3.19078125 2.9921875 3.2890625 C6.92006325 4.2174695 10.44004369 5.75066589 14.125 7.375 C14.84042969 7.67921875 15.55585938 7.9834375 16.29296875 8.296875 C16.98261719 8.59851563 17.67226563 8.90015625 18.3828125 9.2109375 C19.00559082 9.48212402 19.62836914 9.75331055 20.27001953 10.03271484 C22.197757 11.110572 23.51254125 12.37913177 25 14 C18.60530966 13.5020528 13.52415461 11.25963801 7.75 8.5625 C6.8528125 8.15451172 5.955625 7.74652344 5.03125 7.32617188 C1.50428376 5.70788572 -1.76404549 4.157303 -5 2 C-3.35 1.34 -1.7 0.68 0 0 Z " fill="#37507D" transform="translate(266,117)"/>
<path d="M0 0 C9.55582025 -0.43059501 18.04043424 0.74915408 27.3125 3 C28.54162109 3.28617187 29.77074219 3.57234375 31.03710938 3.8671875 C34.02798247 4.56544581 37.01515699 5.27647944 40 6 C40 6.33 40 6.66 40 7 C33.34490695 6.39499154 26.84571841 5.30328353 20.29321289 4.01635742 C16.71114465 3.3452119 13.34126606 2.92649799 9.69140625 2.97265625 C5.97386468 3.00019359 3.42673014 2.37069206 0 1 C0 0.67 0 0.34 0 0 Z " fill="#0E2F8D" transform="translate(263,263)"/>
<path d="M0 0 C1.8125 0.125 1.8125 0.125 4 1 C7.35389286 5.51040763 7.18882156 9.29432554 6.71484375 14.6328125 C5.76618565 17.77427048 4.64356231 19.06050202 2 21 C-1.015625 21.390625 -1.015625 21.390625 -4.25 21.25 C-5.32765625 21.21390625 -6.4053125 21.1778125 -7.515625 21.140625 C-8.74539063 21.07101562 -8.74539063 21.07101562 -10 21 C-10 20.67 -10 20.34 -10 20 C-9.40832031 19.97421875 -8.81664062 19.9484375 -8.20703125 19.921875 C-4.34344192 19.64455374 -1.44690741 19.21889343 2.0625 17.5 C4.54346838 14.29875048 4.64491275 12.23337784 4.44140625 8.26171875 C3.75835532 4.76183833 2.2464782 2.7378953 0 0 Z " fill="#41648E" transform="translate(366,317)"/>
<path d="M0 0 C6.27 0 12.54 0 19 0 C19 0.33 19 0.66 19 1 C13.06 1.495 13.06 1.495 7 2 C11.29 2.33 15.58 2.66 20 3 C20 3.33 20 3.66 20 4 C16.41673499 4.05814085 12.83359162 4.09364357 9.25 4.125 C8.23421875 4.14175781 7.2184375 4.15851563 6.171875 4.17578125 C5.1921875 4.18222656 4.2125 4.18867188 3.203125 4.1953125 C1.85202637 4.21102295 1.85202637 4.21102295 0.47363281 4.22705078 C-2.13926856 3.98721676 -3.75664666 3.32312064 -6 2 C-4.02 2 -2.04 2 0 2 C0 1.34 0 0.68 0 0 Z " fill="#061D63" transform="translate(207,279)"/>
<path d="M0 0 C-0.99 0 -1.98 0 -3 0 C-3 0.66 -3 1.32 -3 2 C-5.68625454 2.50763865 -8.37368383 3.00627197 -11.0625 3.5 C-11.81466797 3.64308594 -12.56683594 3.78617187 -13.34179688 3.93359375 C-17.97740175 4.776431 -22.2889615 5.15015262 -27 5 C-26.67 4.34 -26.34 3.68 -26 3 C-6.64022663 -2.49008499 -6.64022663 -2.49008499 0 0 Z " fill="#3E4F82" transform="translate(135,266)"/>
<path d="M0 0 C0 0.66 0 1.32 0 2 C-3.83227646 2.50832642 -7.66596304 3.00514174 -11.5 3.5 C-13.11648437 3.71462891 -13.11648437 3.71462891 -14.765625 3.93359375 C-20.56477697 4.67616809 -26.15389099 5.17027502 -32 5 C-32 4.67 -32 4.34 -32 4 C-21.33462968 1.73894149 -10.95507335 -0.23815377 0 0 Z " fill="#3F5389" transform="translate(169,281)"/>
<path d="M0 0 C0.33 0.66 0.66 1.32 1 2 C1.99 2.33 2.98 2.66 4 3 C0.37 3.66 -3.26 4.32 -7 5 C-7 5.33 -7 5.66 -7 6 C-14.41148455 7.28297723 -21.47280398 8.25515919 -29 8 C-29 7.67 -29 7.34 -29 7 C-25.85550776 6.34752353 -22.70919244 5.70427425 -19.5625 5.0625 C-18.24475586 4.78889648 -18.24475586 4.78889648 -16.90039062 4.50976562 C-11.27386913 3.36785167 -5.7151501 2.55232885 0 2 C0 1.34 0 0.68 0 0 Z " fill="#314367" transform="translate(145,281)"/>
<path d="M0 0 C1.32 0 2.64 0 4 0 C3.67 0.99 3.34 1.98 3 3 C0.38140685 4.02376636 -2.11898362 4.86148354 -4.8125 5.625 C-5.53759766 5.8415625 -6.26269531 6.058125 -7.00976562 6.28125 C-10.32345526 7.26353311 -13.64340177 8.1754089 -17 9 C-17 8.01 -17 7.02 -17 6 C-15.85660156 5.65066406 -14.71320313 5.30132812 -13.53515625 4.94140625 C-12.04422012 4.48193537 -10.55333745 4.02229099 -9.0625 3.5625 C-8.30775391 3.33240234 -7.55300781 3.10230469 -6.77539062 2.86523438 C-3.09791548 1.96998264 -3.09791548 1.96998264 0 0 Z " fill="#394D7F" transform="translate(140,190)"/>
<path d="M0 0 C-1.98 0.33 -3.96 0.66 -6 1 C-6 1.66 -6 2.32 -6 3 C-18.48519362 6.44419134 -18.48519362 6.44419134 -25 6 C-21.04447994 3.36298663 -17.06537846 2.50302588 -12.5 1.3125 C-11.19869141 0.95575195 -11.19869141 0.95575195 -9.87109375 0.59179688 C-9.03707031 0.37201172 -8.20304687 0.15222656 -7.34375 -0.07421875 C-6.58255859 -0.27619873 -5.82136719 -0.47817871 -5.03710938 -0.6862793 C-3 -1 -3 -1 0 0 Z " fill="#3D5288" transform="translate(106,272)"/>
<path d="M0 0 C2.31 0.33 4.62 0.66 7 1 C7 1.66 7 2.32 7 3 C2.77717482 3.80395025 -1.19613764 4.11811363 -5.4921875 4.09765625 C-6.69101563 4.09443359 -7.88984375 4.09121094 -9.125 4.08789062 C-10.98125 4.07532227 -10.98125 4.07532227 -12.875 4.0625 C-14.13570312 4.05798828 -15.39640625 4.05347656 -16.6953125 4.04882812 C-19.79692386 4.0370796 -22.89843725 4.02065167 -26 4 C-26 3.67 -26 3.34 -26 3 C-13.625 2.505 -13.625 2.505 -1 2 C-0.67 1.34 -0.34 0.68 0 0 Z " fill="#30479B" transform="translate(200,278)"/>
<path d="M0 0 C0.33 0.99 0.66 1.98 1 3 C-0.375 4.5 -0.375 4.5 -2 6 C-2.66 6 -3.32 6 -4 6 C-4.99 9.96 -5.98 13.92 -7 18 C-7.99 18 -8.98 18 -10 18 C-8.99696039 11.39790348 -7.30322069 7.1428735 -3 2 C-2.01 1.34 -1.02 0.68 0 0 Z " fill="#304468" transform="translate(87,213)"/>
<path d="M0 0 C0.33 0.99 0.66 1.98 1 3 C-1.37502188 6.56253281 -3.15678195 7.22620705 -7 9 C-8.0725 9.5775 -9.145 10.155 -10.25 10.75 C-11.61125 11.36875 -11.61125 11.36875 -13 12 C-13.66 11.67 -14.32 11.34 -15 11 C-13.06324055 9.54067427 -11.12562712 8.08250736 -9.1875 6.625 C-8.64029297 6.2125 -8.09308594 5.8 -7.52929688 5.375 C-5.05553395 3.51592968 -2.57565041 1.71710028 0 0 Z " fill="#2C3D6B" transform="translate(178,81)"/>
<path d="M0 0 C0 0.33 0 0.66 0 1 C-2.35344806 1.33923576 -4.7075484 1.67150534 -7.0625 2 C-8.04766602 2.14308594 -8.04766602 2.14308594 -9.05273438 2.2890625 C-21.33812611 3.98359929 -21.33812611 3.98359929 -26 1 C-17.05670282 -0.46037646 -9.0317771 -1.38950417 0 0 Z " fill="#314576" transform="translate(159,312)"/>
<path d="M0 0 C0.99 0.33 1.98 0.66 3 1 C2.29423828 1.58201172 2.29423828 1.58201172 1.57421875 2.17578125 C-0.40992887 4.47502924 -0.68533163 6.21311811 -1.1875 9.1875 C-1.34605469 10.08855469 -1.50460938 10.98960937 -1.66796875 11.91796875 C-1.77753906 12.60503906 -1.88710938 13.29210937 -2 14 C-2.99 13.67 -3.98 13.34 -5 13 C-5.61538462 5.73846154 -5.61538462 5.73846154 -2.5 2 C-1.675 1.34 -0.85 0.68 0 0 Z " fill="#234093" transform="translate(40,318)"/>
<path d="M0 0 C-0.66 0 -1.32 0 -2 0 C-2 0.66 -2 1.32 -2 2 C-7.07476794 3.26305335 -11.72796354 4.27036084 -17 4 C-16 2 -16 2 -13.41796875 1.11328125 C-12.35191406 0.84902344 -11.28585938 0.58476562 -10.1875 0.3125 C-9.12917969 0.04050781 -8.07085937 -0.23148437 -6.98046875 -0.51171875 C-4.16731706 -0.97258895 -2.64034337 -0.9525694 0 0 Z " fill="#3E588A" transform="translate(109,320)"/>
<path d="M0 0 C3.55780196 0.60990891 6.6828589 1.5783681 10 3 C10 3.66 10 4.32 10 5 C13.3 5 16.6 5 20 5 C20 5.33 20 5.66 20 6 C12.94933853 6.34994092 7.38313422 6.19156711 1 3 C0.67 2.01 0.34 1.02 0 0 Z " fill="#35476C" transform="translate(346,333)"/>
<path d="M0 0 C0.99 0 1.98 0 3 0 C2.67 2.31 2.34 4.62 2 7 C0.3603125 7.4021875 0.3603125 7.4021875 -1.3125 7.8125 C-4.61692663 8.87663739 -5.94960422 9.34654664 -8 12 C-7.82701599 9.66471585 -7.29774631 8.30822418 -5.66796875 6.62109375 C-1.42788462 3 -1.42788462 3 1 3 C0.67 2.01 0.34 1.02 0 0 Z " fill="#27365C" transform="translate(43,311)"/>
<path d="M0 0 C-2.38333095 2.74515677 -4.68909319 3.89080018 -8.0625 5.1875 C-8.94035156 5.53167969 -9.81820312 5.87585938 -10.72265625 6.23046875 C-13 7 -13 7 -15 7 C-14 4 -14 4 -12.109375 2.83203125 C-4.27810031 -0.55201294 -4.27810031 -0.55201294 0 0 Z " fill="#384C7C" transform="translate(71,303)"/>
<path d="M0 0 C0 0.66 0 1.32 0 2 C-1.65 2.33 -3.3 2.66 -5 3 C-4.67 3.66 -4.34 4.32 -4 5 C-7.50776784 6.60355101 -10.14354879 7.22036864 -14 7 C-13.01 6.34 -12.02 5.68 -11 5 C-12.32 4.67 -13.64 4.34 -15 4 C-12.87607494 3.3299166 -10.75082476 2.66403203 -8.625 2 C-7.44164063 1.62875 -6.25828125 1.2575 -5.0390625 0.875 C-2 0 -2 0 0 0 Z " fill="#142D72" transform="translate(114,267)"/>
<path d="M0 0 C6.0018137 -0.21824777 11.19233704 0.4943096 17 2 C17 2.66 17 3.32 17 4 C5.47835991 3.22095672 5.47835991 3.22095672 0 1 C0 0.67 0 0.34 0 0 Z " fill="#405B8B" transform="translate(287,289)"/>
<path d="M0 0 C1.60294922 0.01353516 1.60294922 0.01353516 3.23828125 0.02734375 C4.04652344 0.03894531 4.85476562 0.05054688 5.6875 0.0625 C5.6875 0.7225 5.6875 1.3825 5.6875 2.0625 C4.3675 2.0625 3.0475 2.0625 1.6875 2.0625 C1.3575 2.7225 1.0275 3.3825 0.6875 4.0625 C0.6875 3.4025 0.6875 2.7425 0.6875 2.0625 C-3.2725 2.0625 -7.2325 2.0625 -11.3125 2.0625 C-11.3125 1.7325 -11.3125 1.4025 -11.3125 1.0625 C-7.47525828 0.15836327 -3.93747726 -0.04326898 0 0 Z " fill="#3C638C" transform="translate(164.3125,309.9375)"/>
<path d="M0 0 C6.39205856 0.72362927 12.68027076 1.80343362 19 3 C19 3.33 19 3.66 19 4 C14.05 4 9.1 4 4 4 C4 3.01 4 2.02 4 1 C2.68 0.67 1.36 0.34 0 0 Z " fill="#2F2D3C" transform="translate(261,264)"/>
<path d="M0 0 C-0.33 0.66 -0.66 1.32 -1 2 C-3.50390625 2.4140625 -3.50390625 2.4140625 -6.5625 2.625 C-7.57441406 2.69976562 -8.58632812 2.77453125 -9.62890625 2.8515625 C-10.41136719 2.90054687 -11.19382813 2.94953125 -12 3 C-11.01 2.67 -10.02 2.34 -9 2 C-9 1.34 -9 0.68 -9 0 C-5.67465243 -1.10844919 -3.37817425 -0.84454356 0 0 Z " fill="#273366" transform="translate(144,264)"/>
<path d="M0 0 C0 0.33 0 0.66 0 1 C-1.76774419 1.53122363 -3.53934083 2.04964073 -5.3125 2.5625 C-6.29863281 2.85253906 -7.28476563 3.14257812 -8.30078125 3.44140625 C-11 4 -11 4 -14 3 C-9.05485878 0.07558908 -5.81671503 -1.74501451 0 0 Z " fill="#33446F" transform="translate(94,324)"/>
<path d="M0 0 C4.29 0.66 8.58 1.32 13 2 C9.4513865 4.36574234 8.4235475 4.10865265 4.3125 3.625 C2.82169922 3.45871094 2.82169922 3.45871094 1.30078125 3.2890625 C0.54152344 3.19367188 -0.21773438 3.09828125 -1 3 C-0.67 2.01 -0.34 1.02 0 0 Z " fill="#2F3E77" transform="translate(277,286)"/>
<path d="M0 0 C0.33 0 0.66 0 1 0 C1 2.64 1 5.28 1 8 C1.66 8 2.32 8 3 8 C4.6875 9.8125 4.6875 9.8125 6 12 C5.67 12.99 5.34 13.98 5 15 C0.17970402 10.30021142 0.17970402 10.30021142 -0.33203125 6.59765625 C-0.31450906 4.37934668 -0.22068846 2.20688457 0 0 Z " fill="#263148" transform="translate(34,323)"/>
<path d="M0 0 C1.91595968 -0.08133791 3.83291932 -0.13934367 5.75 -0.1875 C7.35101563 -0.23970703 7.35101563 -0.23970703 8.984375 -0.29296875 C12.30027855 0.02917214 13.59016673 0.77148914 16 3 C14.27054347 2.85764543 12.54144346 2.71095618 10.8125 2.5625 C9.36810547 2.44068359 9.36810547 2.44068359 7.89453125 2.31640625 C5.21350398 2.02333849 2.6337014 1.57296246 0 1 C0 0.67 0 0.34 0 0 Z " fill="#3C57A0" transform="translate(260,312)"/>
<path d="M0 0 C0.33 0.99 0.66 1.98 1 3 C-0.32 4.32 -1.64 5.64 -3 7 C-4.32 6.34 -5.64 5.68 -7 5 C-2.25 1.125 -2.25 1.125 0 0 Z " fill="#203671" transform="translate(208,61)"/>
<path d="M0 0 C-4.455 2.97 -4.455 2.97 -9 6 C-9.33 5.01 -9.66 4.02 -10 3 C-4.5 -1.125 -4.5 -1.125 0 0 Z " fill="#374A79" transform="translate(219,57)"/>
<path d="M0 0 C0.99 0.33 1.98 0.66 3 1 C3 1.66 3 2.32 3 3 C-1.05606165 2.53199289 -4.46588679 2.12046792 -8 0 C-5.11301479 -1.4434926 -3.10530768 -0.63373626 0 0 Z " fill="#324B7D" transform="translate(310,293)"/>
<path d="M0 0 C0.66 0.66 1.32 1.32 2 2 C0.88671875 3.48828125 0.88671875 3.48828125 -1 5 C-3.91796875 5.29296875 -3.91796875 5.29296875 -7.1875 5.1875 C-8.27417969 5.16042969 -9.36085938 5.13335937 -10.48046875 5.10546875 C-11.31191406 5.07066406 -12.14335937 5.03585937 -13 5 C-13 4.67 -13 4.34 -13 4 C-12.39671875 3.96261719 -11.7934375 3.92523438 -11.171875 3.88671875 C-5.00632228 3.43746659 -5.00632228 3.43746659 0 0 Z " fill="#3E518E" transform="translate(369,333)"/>
<path d="M0 0 C7.625 0.875 7.625 0.875 11 2 C11 2.66 11 3.32 11 4 C6.94393835 3.53199289 3.53411321 3.12046792 0 1 C0 0.67 0 0.34 0 0 Z " fill="#3D5989" transform="translate(313,295)"/>
<path d="M0 0 C3.96 0 7.92 0 12 0 C12 0.99 12 1.98 12 3 C6.06 2.01 6.06 2.01 0 1 C0 0.67 0 0.34 0 0 Z " fill="#3D5892" transform="translate(265,285)"/>
<path d="M0 0 C-2.64 1.65 -5.28 3.3 -8 5 C-8.33 4.01 -8.66 3.02 -9 2 C-4.5 -1.125 -4.5 -1.125 0 0 Z " fill="#364F7B" transform="translate(97,210)"/>
<path d="M0 0 C3 1 3 1 4.75 4.375 C6 8 6 8 5 11 C4.16151196 9.54462432 3.32936066 8.08559627 2.5 6.625 C1.80390625 5.40683594 1.80390625 5.40683594 1.09375 4.1640625 C0 2 0 2 0 0 Z " fill="#41618D" transform="translate(323,151)"/>
<path d="M0 0 C4.95 0.99 4.95 0.99 10 2 C6 4 6 4 2 4 C2 3.01 2 2.02 2 1 C1.34 0.67 0.68 0.34 0 0 Z " fill="#758AB8" transform="translate(310,273)"/>
<path d="M0 0 C0.556875 0.226875 1.11375 0.45375 1.6875 0.6875 C-3.9375 4.5625 -3.9375 4.5625 -7.3125 5.6875 C-7.3125 4.6975 -7.3125 3.7075 -7.3125 2.6875 C-3.28618421 -0.44407895 -3.28618421 -0.44407895 0 0 Z " fill="#385684" transform="translate(186.3125,77.3125)"/>
<path d="M0 0 C0 0.66 0 1.32 0 2 C-2.90600261 3.25664978 -4.79604584 4 -8 4 C-8 3.34 -8 2.68 -8 2 C-4.91190305 0.23537317 -3.76687864 0 0 0 Z " fill="#344A79" transform="translate(102,292)"/>
<path d="M0 0 C2.97 0.33 5.94 0.66 9 1 C8.67 1.99 8.34 2.98 8 4 C6.35 3.67 4.7 3.34 3 3 C3 2.34 3 1.68 3 1 C2.01 0.67 1.02 0.34 0 0 Z " fill="#1A3F94" transform="translate(317,274)"/>
<path d="M0 0 C2.31 0.33 4.62 0.66 7 1 C7 1.66 7 2.32 7 3 C4.69 3 2.38 3 0 3 C0 2.01 0 1.02 0 0 Z " fill="#344D82" transform="translate(200,278)"/>
<path d="M0 0 C1.32 0 2.64 0 4 0 C3.67 0.99 3.34 1.98 3 3 C0.36 3 -2.28 3 -5 3 C-4.360625 2.690625 -3.72125 2.38125 -3.0625 2.0625 C-1.06389179 1.1654837 -1.06389179 1.1654837 0 0 Z " fill="#253A60" transform="translate(140,190)"/>
<path d="M0 0 C0.99 0.33 1.98 0.66 3 1 C3 1.66 3 2.32 3 3 C2.01 2.67 1.02 2.34 0 2 C0 1.34 0 0.68 0 0 Z " fill="#2A6360" transform="translate(339,288)"/>
<path d="M0 0 C1.485 0.99 1.485 0.99 3 2 C2.67 2.66 2.34 3.32 2 4 C1.34 2.68 0.68 1.36 0 0 Z " fill="#476F6C" transform="translate(249,232)"/>
<path d="M0 0 C0.99 0.33 1.98 0.66 3 1 C2.01 1.33 1.02 1.66 0 2 C0 1.34 0 0.68 0 0 Z " fill="#804C27" transform="translate(392,309)"/>
<path d="M0 0 C0.66 1.32 1.32 2.64 2 4 C1.34 3.67 0.68 3.34 0 3 C0 2.01 0 1.02 0 0 Z " fill="#3E7D52" transform="translate(124,71)"/>
<path d="M0 0 C0.66 0 1.32 0 2 0 C2 0.66 2 1.32 2 2 C1.34 2 0.68 2 0 2 C0 1.34 0 0.68 0 0 Z " fill="#1F3F1F" transform="translate(401,312)"/>
<path d="M0 0 C0.66 0 1.32 0 2 0 C2 0.66 2 1.32 2 2 C1.34 2 0.68 2 0 2 C0 1.34 0 0.68 0 0 Z " fill="#711F71" transform="translate(33,310)"/>
<path d="M0 0 C0.66 0 1.32 0 2 0 C2 0.66 2 1.32 2 2 C1.34 2 0.68 2 0 2 C0 1.34 0 0.68 0 0 Z " fill="#307FB2" transform="translate(327,283)"/>
<path d="M0 0 C0.66 0 1.32 0 2 0 C2 0.66 2 1.32 2 2 C1.34 2 0.68 2 0 2 C0 1.34 0 0.68 0 0 Z " fill="#711F1F" transform="translate(323,281)"/>
<path d="M0 0 C0.66 0 1.32 0 2 0 C2 0.66 2 1.32 2 2 C1.34 2 0.68 2 0 2 C0 1.34 0 0.68 0 0 Z " fill="#3B1825" transform="translate(320,279)"/>
<path d="M0 0 C0 3 0 3 0 3 Z " fill="#135E71" transform="translate(159,134)"/>
<path d="M0 0 C0.66 0 1.32 0 2 0 C1.67 0.66 1.34 1.32 1 2 C0.67 1.34 0.34 0.68 0 0 Z " fill="#6A266A" transform="translate(133,92)"/>
<path d="" fill="#414184" transform="translate(0,0)"/>
<path d="" fill="#848441" transform="translate(0,0)"/>
<path d="" fill="#848441" transform="translate(0,0)"/>
<path d="" fill="#848441" transform="translate(0,0)"/>
<path d="" fill="#628463" transform="translate(0,0)"/>
<path d="" fill="#000000" transform="translate(0,0)"/>
<path d="" fill="#636331" transform="translate(0,0)"/>
<path d="" fill="#636331" transform="translate(0,0)"/>
<path d="" fill="#633163" transform="translate(0,0)"/>
<path d="" fill="#636331" transform="translate(0,0)"/>
<path d="" fill="#636331" transform="translate(0,0)"/>
<path d="" fill="#636331" transform="translate(0,0)"/>
<path d="" fill="#317F7F" transform="translate(0,0)"/>
<path d="" fill="#636331" transform="translate(0,0)"/>
<path d="" fill="#636331" transform="translate(0,0)"/>
<path d="" fill="#633163" transform="translate(0,0)"/>
<path d="" fill="#633163" transform="translate(0,0)"/>
<path d="" fill="#319999" transform="translate(0,0)"/>
<path d="" fill="#319999" transform="translate(0,0)"/>
<path d="" fill="#316363" transform="translate(0,0)"/>
<path d="" fill="#316363" transform="translate(0,0)"/>
<path d="" fill="#316363" transform="translate(0,0)"/>
<path d="" fill="#633163" transform="translate(0,0)"/>
<path d="" fill="#633163" transform="translate(0,0)"/>
<path d="" fill="#633163" transform="translate(0,0)"/>
<path d="" fill="#993199" transform="translate(0,0)"/>
<path d="" fill="#996368" transform="translate(0,0)"/>
<path d="" fill="#316363" transform="translate(0,0)"/>
<path d="" fill="#871A6D" transform="translate(0,0)"/>
<path d="" fill="#870087" transform="translate(0,0)"/>
<path d="" fill="#C6596D" transform="translate(0,0)"/>
</svg>
